# xmcd
#
# Track frame offsets:
# 150
# 22166
# 38776
# 59587
# 78336
# 104817
# 124910
# 144042
#
# Disc length: 2172 seconds
#
#
# Revision: 2
# Processed by: cddbd v1.5.2PL0 Copyright (c) Steve Scherf et al.
# Submitted via: FreeRIP 2.945 
#
DISCID=6e087a08
DTITLE=The Stylistics - Hurry Up This Way Again
DYEAR=1900
DGENRE=R&B
TTITLE0=Driving Me Wild
TTITLE1=And I'll See You No More
TTITLE2=Found A Love You Couldn't Handle
TTITLE3=Maybe It's Love This Time
TTITLE4=Hurry Up This Way Again
TTITLE5=It Started Out
TTITLE6=I Have You, You Have Me
TTITLE7=Is There Something On Your Mind
EXTD=
EXTT0=
EXTT1=
EXTT2=
EXTT3=
EXTT4=
EXTT5=
EXTT6=
EXTT7=
PLAYORDER=
